# xmcd CD database file
#
# Track frame offsets:
#	150
#	12568
#	25811
#	38384
#	48304
#	60034
#	73896
#	85722
#	98054
#	112948
#	119808
#	132338
#	144268
#	154100
#	165413
#	176301
#	188188
#	202224
#	215157
#	226950
#	239799
#	253541
#	266315
#	276490
#	289143
#
# Disc length: 4017 seconds
#
# Revision: 0
# Processed by: cddbd v1.5.2PL0 Copyright (c) Steve Scherf et al.
# Submitted via: CDex 1.70beta2
#
DISCID=670faf19
DTITLE=Sons Of The Pioneers - Sons Of The Pioneers (disk1)
DYEAR=2008
DGENRE=Country
TTITLE0=Cool Water
TTITLE1=Along The Navajo Trail
TTITLE2=I'm An Old Cowhand
TTITLE3=My Best To You
TTITLE4=Let's Go West Again
TTITLE5=Room Full of Roses
TTITLE6=Ride Ranger Ride
TTITLE7=Song Of The Pioneers
TTITLE8=Riders In The Sky
TTITLE9=Along The Santa Fe Trail
TTITLE10=Little Gray Home In The West
TTITLE11=The Last Round-Up
TTITLE12=River Of No Return
TTITLE13=When The Moon Comes Over Sun Valley 
TTITLE14=The Bar-None Ranch
TTITLE15=A Melody From The Sky
TTITLE16=Blue Bonnet Girl
TTITLE17=Cigarettes, Wisky and Wild, Wild Women
TTITLE18=Cowboy Country
TTITLE19=Down Where The Rio Flows
TTITLE20=Hills Of Old Wyoming
TTITLE21=I Wonder If She Waits For Me Tonight?
TTITLE22=Montana
TTITLE23=No One To Cry To
TTITLE24=One More Ride
EXTD=YEAR: 2008
EXTT0=
EXTT1=
EXTT2=
EXTT3=
EXTT4=
EXTT5=
EXTT6=
EXTT7=
EXTT8=
EXTT9=
EXTT10=
EXTT11=
EXTT12=
EXTT13=
EXTT14=
EXTT15=
EXTT16=
EXTT17=
EXTT18=
EXTT19=
EXTT20=
EXTT21=
EXTT22=
EXTT23=
EXTT24=
PLAYORDER=
